<svg width="1878" height="1500" viewBox="0 0 1878 1500" fill="none" xmlns="http://www.w3.org/2000/svg">
<g filter="url(#filter0_f_4_5)">
<path d="M769.859 550.077C769.859 628.249 707.444 691.62 630.451 691.62C553.458 691.62 491.042 628.249 491.042 550.077C491.042 471.906 553.458 408.535 630.451 408.535C707.444 408.535 769.859 471.906 769.859 550.077Z" fill="#646CFF"/>
<path d="M577.817 481.796C577.817 526.97 538.011 563.592 488.908 563.592C439.806 563.592 400 526.97 400 481.796C400 436.621 439.806 400 488.908 400C538.011 400 577.817 436.621 577.817 481.796Z" fill="#FB6586"/>
<path d="M1477.86 958.077C1477.86 1036.25 1415.44 1099.62 1338.45 1099.62C1261.46 1099.62 1199.04 1036.25 1199.04 958.077C1199.04 879.906 1261.46 816.535 1338.45 816.535C1415.44 816.535 1477.86 879.906 1477.86 958.077Z" fill="#646CFF"/>
<path d="M1285.82 889.796C1285.82 934.97 1246.01 971.592 1196.91 971.592C1147.81 971.592 1108 934.97 1108 889.796C1108 844.621 1147.81 808 1196.91 808C1246.01 808 1285.82 844.621 1285.82 889.796Z" fill="#FB6586"/>
</g>
<defs>
<filter id="filter0_f_4_5" x="0" y="0" width="1877.86" height="1499.62" filterUnits="userSpaceOnUse" color-interpolation-filters="sRGB">
<feFlood flood-opacity="0" result="BackgroundImageFix"/>
<feBlend mode="normal" in="SourceGraphic" in2="BackgroundImageFix" result="shape"/>
<feGaussianBlur stdDeviation="200" result="effect1_foregroundBlur_4_5"/>
</filter>
</defs>
</svg>
