<svg width="1200" height="308" viewBox="0 0 1200 308" fill="none" xmlns="http://www.w3.org/2000/svg">
<g clip-path="url(#clip0_21_3)">
<path opacity="0.06" d="M891.985 533.814C882.874 525.673 873.368 517.505 864.288 508.457C857.029 515.235 850.226 521.589 843.029 527.914C753.163 606.197 660.534 638.787 605.625 607.105C552.508 576.784 535.774 487.212 557.033 374.524C559.301 362.309 562.024 350.093 565.203 337.878C555.666 335.042 546.586 332.432 537.505 329.369C424.437 290.369 350 227.033 350 163.669C350 102.603 419.456 43.3227 527.939 5.31549C540.087 1.23114 552.903 -2.82485 566.083 -6.45538C563.046 -18.2263 560.647 -29.5434 558.369 -40.4917C535.653 -154.882 551.536 -246.269 605.109 -277.044C660.929 -309.633 753.558 -274.775 846.582 -192.889C852.018 -187.925 857.485 -182.48 863.376 -177.062C872.002 -185.203 880.171 -193.343 888.796 -200.576C976.87 -277.157 1064.46 -309.18 1118.03 -278.405C1173.85 -246.751 1190.22 -149.011 1165.26 -28.1819C1163.89 -20.467 1162.22 -13.2343 1160.27 -5.49103C1171.63 -2.31431 1182.96 1.28786 1193.41 4.9184C1304.17 42.9256 1375.9 102.205 1374.99 164.634C1374.99 228.423 1298.28 291.334 1180.62 330.248C1174.28 332.064 1167.93 334.333 1161.55 336.12C1164.28 345.168 1166.08 354.216 1167.9 363.264C1191.5 480.462 1173.33 576.387 1118.42 608.07C1104 616.177 1087.42 620.307 1070.59 619.982C1020.27 619.897 956.37 588.952 891.985 533.814ZM980.97 367.745C954.894 405.627 926.237 441.904 895.174 476.349C903.799 484.858 912.424 492.658 921.049 499.891C995.942 564.134 1064.94 588.13 1097.2 569.58C1107.05 561.658 1115.09 551.97 1120.86 541.091C1126.63 530.212 1130.01 518.363 1130.79 506.244C1137.34 461.341 1135.49 415.716 1125.32 371.404C1123.95 363.264 1122.28 355.123 1119.88 346.529C1074.15 356.527 1027.73 363.615 980.97 367.745ZM600.553 382.239C581.967 478.675 595.573 550.548 627.887 569.126C639.335 573.595 651.695 575.657 664.092 575.167C676.488 574.676 688.618 571.646 699.621 566.29C742.425 549.489 781.408 525.221 814.481 494.785C821.283 489.34 827.631 483.015 834.464 476.69C802.718 442.233 773.303 405.961 746.391 368.085C699.804 364.452 653.542 357.818 607.933 348.231C605.109 360.059 602.831 371.347 600.553 382.239ZM864.773 445.575C884.757 423.394 904.71 398.973 924.694 371.829C904.71 372.737 883.846 373.191 862.951 373.191C842.057 373.191 822.559 372.737 803.031 371.829C823.44 398.491 843.879 423.394 864.743 445.575H864.773ZM769.411 3.95401C752.161 28.8289 735.366 55.0085 719.483 82.6913C703.599 109.835 689.113 137.433 675.902 164.946C689.538 192.09 704.055 219.687 719.938 247.767C735.822 274.911 752.617 301.658 769.867 326.93C799.812 328.745 831.154 329.766 862.921 329.766C894.688 329.766 926.455 328.859 956.886 326.618C973.225 301.743 990.02 275.025 1005.93 247.427C1021.85 219.829 1036.79 191.778 1049.97 164.634C1036.79 137.943 1021.82 110.346 1005.93 82.7197C990.05 55.0936 973.256 28.8289 956.461 3.98239C926.091 1.71331 894.718 0.351868 862.951 0.351868C831.184 0.351868 799.842 1.68493 769.411 3.95401ZM619.626 306.65C650.772 313.294 682.296 318.285 714.047 321.598C703.144 304.409 692.271 287.193 681.824 269.097C671.832 251.454 661.84 233.812 652.76 216.17C639.609 246.916 628.707 277.294 619.626 306.65ZM1044.05 268.643C1033.6 286.739 1023.15 303.927 1012.74 320.69C1044.96 316.919 1076.94 311.484 1108.52 304.409C1098.66 273.865 1087.15 243.809 1074.02 214.355C1064.49 232.451 1054.5 250.547 1044.05 268.643ZM542 46.9248C449.401 79.5146 393.581 126.967 393.581 164.123C395.346 176.077 399.622 187.587 406.163 197.994C412.704 208.4 421.381 217.498 431.696 224.764C467.125 252.589 507.753 274.062 551.536 288.1C559.706 290.937 568.331 293.092 576.956 295.815C590.9 251.308 607.725 207.633 627.34 165.031C607.688 123.158 591.009 80.1227 577.411 36.2034C565.162 39.2667 553.358 42.8405 542 46.9248ZM1098.99 164.123C1119.13 206.184 1136.38 249.403 1150.62 293.518C1156.54 291.702 1162.43 289.887 1167.87 288.072C1269.09 254.603 1331.87 203.463 1332.2 163.641C1332.2 126.541 1274.1 78.5502 1179.23 45.9888C1169.69 42.8405 1159.27 39.6637 1148.86 36.487C1135.1 79.9631 1118.45 122.592 1098.99 164.123ZM1043.62 60.0571C1054.07 78.1531 1064.06 95.8236 1073.11 113.466C1085.72 84.6329 1096.63 55.1756 1105.79 25.2267C1074.96 18.2301 1043.74 12.7952 1012.28 8.94601C1023.18 25.6521 1033.6 42.415 1043.59 60.0571H1043.62ZM620.081 24.858C629.192 53.8172 640.065 83.2302 652.76 113.522C661.871 95.8803 671.832 78.2382 681.824 60.5961C691.816 42.9539 702.233 25.7656 713.135 9.00275C680.457 13.002 649.601 18.4194 620.081 24.858ZM917.405 -167.447C909.691 -160.668 901.977 -153.435 894.233 -146.174C925.755 -112.153 954.726 -76.1399 980.939 -38.3928C1027.13 -34.2282 1072.95 -26.9673 1118.03 -16.6663C1119.85 -23.4452 1121.07 -30.2524 1122.59 -37.0313C1143.84 -141.097 1130.75 -220.742 1096.25 -240.625C1088.68 -244.595 1080.09 -246.556 1071.41 -246.298C1034.33 -246.468 977.416 -219.494 917.405 -167.532V-167.447ZM626.884 -239.49C594.662 -220.941 581.937 -146.742 601.009 -49.0007C603.287 -38.5913 605.565 -28.2102 608.267 -17.347C653.409 -27.2691 699.207 -34.3757 745.358 -38.6197C771.666 -76.4142 800.792 -112.431 832.52 -146.401C827.54 -151.393 822.073 -155.903 817.092 -160.441C753.923 -216.232 693.182 -245.674 653.519 -245.674C644.197 -245.971 634.972 -243.829 626.884 -239.49ZM923.752 -42.2218C905.032 -67.5187 884.836 -91.8347 863.255 -115.059C842.846 -92.9075 822.407 -68.4581 802.515 -42.2218C822.498 -43.1295 842.451 -43.5833 862.891 -43.5833C883.33 -43.5833 903.799 -43.2146 923.783 -42.2218H923.752ZM772.145 165.938C771.719 154.309 773.755 142.716 778.136 131.823C782.516 120.929 789.156 110.951 797.673 102.458C806.191 93.9661 816.419 87.1271 827.772 82.3333C839.125 77.5395 851.379 74.8852 863.832 74.5226C888.959 75.322 912.721 85.3942 929.908 102.531C947.096 119.667 956.306 142.47 955.519 165.938C956.33 189.426 947.127 212.255 929.93 229.411C912.734 246.567 888.95 256.647 863.802 257.439C851.342 257.077 839.081 254.42 827.724 249.62C816.367 244.821 806.136 237.973 797.62 229.472C789.104 220.97 782.469 210.981 778.097 200.078C773.726 189.175 771.703 177.573 772.145 165.938Z" fill="#633BBC"/>
<g opacity="0.5" filter="url(#filter0_f_21_3)">
<path d="M219.248 -227.362C219.248 -64.9834 70.1966 66.6507 -113.668 66.6507C-297.533 66.6507 -446.585 -64.9834 -446.585 -227.362C-446.585 -389.741 -297.533 -521.375 -113.668 -521.375C70.1966 -521.375 219.248 -389.741 219.248 -227.362Z" fill="#646CFF"/>
<path d="M-239.361 -369.198C-239.361 -275.361 -334.42 -199.291 -451.681 -199.291C-568.941 -199.291 -664 -275.361 -664 -369.198C-664 -463.035 -568.941 -539.105 -451.681 -539.105C-334.42 -539.105 -239.361 -463.035 -239.361 -369.198Z" fill="#FB6586"/>
<path d="M1910 620.139C1910 782.518 1760.95 914.152 1577.08 914.152C1393.22 914.152 1244.17 782.518 1244.17 620.139C1244.17 457.76 1393.22 326.126 1577.08 326.126C1760.95 326.126 1910 457.76 1910 620.139Z" fill="#646CFF"/>
<path d="M1451.39 478.304C1451.39 572.141 1356.33 648.211 1239.07 648.211C1121.81 648.211 1026.75 572.141 1026.75 478.304C1026.75 384.467 1121.81 308.397 1239.07 308.397C1356.33 308.397 1451.39 384.467 1451.39 478.304Z" fill="#FB6586"/>
</g>
<path d="M321.25 185.859V147.281H334.75V198H322.047L321.25 185.859ZM322.75 175.453L326.734 175.359C326.734 178.734 326.344 181.875 325.562 184.781C324.781 187.656 323.609 190.156 322.047 192.281C320.484 194.375 318.516 196.016 316.141 197.203C313.766 198.359 310.969 198.938 307.75 198.938C305.281 198.938 303 198.594 300.906 197.906C298.844 197.188 297.062 196.078 295.562 194.578C294.094 193.047 292.938 191.094 292.094 188.719C291.281 186.312 290.875 183.422 290.875 180.047V147.281H304.375V180.141C304.375 181.641 304.547 182.906 304.891 183.938C305.266 184.969 305.781 185.812 306.438 186.469C307.094 187.125 307.859 187.594 308.734 187.875C309.641 188.156 310.641 188.297 311.734 188.297C314.516 188.297 316.703 187.734 318.297 186.609C319.922 185.484 321.062 183.953 321.719 182.016C322.406 180.047 322.75 177.859 322.75 175.453ZM377.284 183.984C377.284 183.016 377.003 182.141 376.441 181.359C375.878 180.578 374.831 179.859 373.3 179.203C371.8 178.516 369.628 177.891 366.784 177.328C364.222 176.766 361.831 176.062 359.612 175.219C357.425 174.344 355.519 173.297 353.894 172.078C352.3 170.859 351.05 169.422 350.144 167.766C349.237 166.078 348.784 164.156 348.784 162C348.784 159.875 349.237 157.875 350.144 156C351.081 154.125 352.409 152.469 354.128 151.031C355.878 149.562 358.003 148.422 360.503 147.609C363.034 146.766 365.878 146.344 369.034 146.344C373.441 146.344 377.222 147.047 380.378 148.453C383.566 149.859 386.003 151.797 387.691 154.266C389.409 156.703 390.269 159.484 390.269 162.609H376.769C376.769 161.297 376.487 160.125 375.925 159.094C375.394 158.031 374.55 157.203 373.394 156.609C372.269 155.984 370.8 155.672 368.987 155.672C367.487 155.672 366.191 155.938 365.097 156.469C364.003 156.969 363.159 157.656 362.566 158.531C362.003 159.375 361.722 160.312 361.722 161.344C361.722 162.125 361.878 162.828 362.191 163.453C362.534 164.047 363.081 164.594 363.831 165.094C364.581 165.594 365.55 166.062 366.737 166.5C367.956 166.906 369.456 167.281 371.237 167.625C374.894 168.375 378.159 169.359 381.034 170.578C383.909 171.766 386.191 173.391 387.878 175.453C389.566 177.484 390.409 180.156 390.409 183.469C390.409 185.719 389.909 187.781 388.909 189.656C387.909 191.531 386.472 193.172 384.597 194.578C382.722 195.953 380.472 197.031 377.847 197.812C375.253 198.562 372.331 198.938 369.081 198.938C364.362 198.938 360.362 198.094 357.081 196.406C353.831 194.719 351.362 192.578 349.675 189.984C348.019 187.359 347.191 184.672 347.191 181.922H359.987C360.05 183.766 360.519 185.25 361.394 186.375C362.3 187.5 363.441 188.312 364.816 188.812C366.222 189.312 367.737 189.562 369.362 189.562C371.112 189.562 372.566 189.328 373.722 188.859C374.878 188.359 375.753 187.703 376.347 186.891C376.972 186.047 377.284 185.078 377.284 183.984ZM427.319 198.938C423.381 198.938 419.85 198.312 416.725 197.062C413.6 195.781 410.944 194.016 408.756 191.766C406.6 189.516 404.944 186.906 403.787 183.938C402.631 180.938 402.053 177.75 402.053 174.375V172.5C402.053 168.656 402.6 165.141 403.694 161.953C404.787 158.766 406.35 156 408.381 153.656C410.444 151.312 412.944 149.516 415.881 148.266C418.819 146.984 422.131 146.344 425.819 146.344C429.412 146.344 432.6 146.938 435.381 148.125C438.162 149.312 440.491 151 442.366 153.188C444.272 155.375 445.709 158 446.678 161.062C447.647 164.094 448.131 167.469 448.131 171.188V176.812H407.819V167.812H434.866V166.781C434.866 164.906 434.522 163.234 433.834 161.766C433.178 160.266 432.178 159.078 430.834 158.203C429.491 157.328 427.772 156.891 425.678 156.891C423.897 156.891 422.366 157.281 421.084 158.062C419.803 158.844 418.756 159.938 417.944 161.344C417.162 162.75 416.569 164.406 416.162 166.312C415.787 168.188 415.6 170.25 415.6 172.5V174.375C415.6 176.406 415.881 178.281 416.444 180C417.037 181.719 417.866 183.203 418.928 184.453C420.022 185.703 421.334 186.672 422.866 187.359C424.428 188.047 426.194 188.391 428.162 188.391C430.6 188.391 432.866 187.922 434.959 186.984C437.084 186.016 438.912 184.562 440.444 182.625L447.006 189.75C445.944 191.281 444.491 192.75 442.647 194.156C440.834 195.562 438.647 196.719 436.084 197.625C433.522 198.5 430.6 198.938 427.319 198.938ZM507.259 187.031V198H470.931V187.031H507.259ZM475.525 129.75V198H461.462V129.75H475.525ZM502.525 157.547V168.234H470.931V157.547H502.525ZM507.212 129.75V140.766H470.931V129.75H507.212ZM530.294 147.281L538.684 162.703L547.309 147.281H561.7L547.356 172.078L562.356 198H547.919L538.778 181.688L529.637 198H515.2L530.2 172.078L515.856 147.281H530.294ZM587.312 147.281V198H573.766V147.281H587.312ZM572.922 134.062C572.922 132.094 573.609 130.469 574.984 129.188C576.359 127.906 578.203 127.266 580.516 127.266C582.797 127.266 584.625 127.906 586 129.188C587.406 130.469 588.109 132.094 588.109 134.062C588.109 136.031 587.406 137.656 586 138.938C584.625 140.219 582.797 140.859 580.516 140.859C578.203 140.859 576.359 140.219 574.984 138.938C573.609 137.656 572.922 136.031 572.922 134.062ZM628.112 147.281V156.844H598.581V147.281H628.112ZM605.894 134.766H619.394V182.719C619.394 184.188 619.581 185.312 619.956 186.094C620.362 186.875 620.956 187.422 621.737 187.734C622.519 188.016 623.503 188.156 624.691 188.156C625.534 188.156 626.284 188.125 626.941 188.062C627.628 187.969 628.206 187.875 628.675 187.781L628.722 197.719C627.566 198.094 626.316 198.391 624.972 198.609C623.628 198.828 622.144 198.938 620.519 198.938C617.55 198.938 614.956 198.453 612.737 197.484C610.55 196.484 608.862 194.891 607.675 192.703C606.487 190.516 605.894 187.641 605.894 184.078V134.766ZM656.397 129.75V198H642.381V129.75H656.397ZM686.744 158.109V198H673.244V147.281H685.9L686.744 158.109ZM684.775 170.859H681.119C681.119 167.109 681.603 163.734 682.572 160.734C683.541 157.703 684.9 155.125 686.65 153C688.4 150.844 690.478 149.203 692.884 148.078C695.322 146.922 698.041 146.344 701.041 146.344C703.416 146.344 705.587 146.688 707.556 147.375C709.525 148.062 711.212 149.156 712.619 150.656C714.056 152.156 715.15 154.141 715.9 156.609C716.681 159.078 717.072 162.094 717.072 165.656V198H703.478V165.609C703.478 163.359 703.166 161.609 702.541 160.359C701.916 159.109 700.994 158.234 699.775 157.734C698.587 157.203 697.119 156.938 695.369 156.938C693.556 156.938 691.978 157.297 690.634 158.016C689.322 158.734 688.228 159.734 687.353 161.016C686.509 162.266 685.869 163.734 685.431 165.422C684.994 167.109 684.775 168.922 684.775 170.859ZM756.981 147.281V156.844H727.45V147.281H756.981ZM734.763 134.766H748.263V182.719C748.263 184.188 748.45 185.312 748.825 186.094C749.231 186.875 749.825 187.422 750.606 187.734C751.388 188.016 752.372 188.156 753.559 188.156C754.403 188.156 755.153 188.125 755.809 188.062C756.497 187.969 757.075 187.875 757.544 187.781L757.591 197.719C756.434 198.094 755.184 198.391 753.841 198.609C752.497 198.828 751.013 198.938 749.388 198.938C746.419 198.938 743.825 198.453 741.606 197.484C739.419 196.484 737.731 194.891 736.544 192.703C735.356 190.516 734.763 187.641 734.763 184.078V134.766ZM792.812 198.938C788.875 198.938 785.344 198.312 782.219 197.062C779.094 195.781 776.438 194.016 774.25 191.766C772.094 189.516 770.438 186.906 769.281 183.938C768.125 180.938 767.547 177.75 767.547 174.375V172.5C767.547 168.656 768.094 165.141 769.188 161.953C770.281 158.766 771.844 156 773.875 153.656C775.938 151.312 778.438 149.516 781.375 148.266C784.312 146.984 787.625 146.344 791.312 146.344C794.906 146.344 798.094 146.938 800.875 148.125C803.656 149.312 805.984 151 807.859 153.188C809.766 155.375 811.203 158 812.172 161.062C813.141 164.094 813.625 167.469 813.625 171.188V176.812H773.312V167.812H800.359V166.781C800.359 164.906 800.016 163.234 799.328 161.766C798.672 160.266 797.672 159.078 796.328 158.203C794.984 157.328 793.266 156.891 791.172 156.891C789.391 156.891 787.859 157.281 786.578 158.062C785.297 158.844 784.25 159.938 783.438 161.344C782.656 162.75 782.062 164.406 781.656 166.312C781.281 168.188 781.094 170.25 781.094 172.5V174.375C781.094 176.406 781.375 178.281 781.938 180C782.531 181.719 783.359 183.203 784.422 184.453C785.516 185.703 786.828 186.672 788.359 187.359C789.922 188.047 791.688 188.391 793.656 188.391C796.094 188.391 798.359 187.922 800.453 186.984C802.578 186.016 804.406 184.562 805.938 182.625L812.5 189.75C811.438 191.281 809.984 192.75 808.141 194.156C806.328 195.562 804.141 196.719 801.578 197.625C799.016 198.5 796.094 198.938 792.812 198.938ZM839.331 158.109V198H825.831V147.281H838.487L839.331 158.109ZM837.362 170.859H833.706C833.706 167.109 834.191 163.734 835.159 160.734C836.128 157.703 837.487 155.125 839.237 153C840.987 150.844 843.066 149.203 845.472 148.078C847.909 146.922 850.628 146.344 853.628 146.344C856.003 146.344 858.175 146.688 860.144 147.375C862.112 148.062 863.8 149.156 865.206 150.656C866.644 152.156 867.737 154.141 868.487 156.609C869.269 159.078 869.659 162.094 869.659 165.656V198H856.066V165.609C856.066 163.359 855.753 161.609 855.128 160.359C854.503 159.109 853.581 158.234 852.362 157.734C851.175 157.203 849.706 156.938 847.956 156.938C846.144 156.938 844.566 157.297 843.222 158.016C841.909 158.734 840.816 159.734 839.941 161.016C839.097 162.266 838.456 163.734 838.019 165.422C837.581 167.109 837.362 168.922 837.362 170.859ZM909.569 147.281V156.844H880.037V147.281H909.569ZM887.35 134.766H900.85V182.719C900.85 184.188 901.037 185.312 901.412 186.094C901.819 186.875 902.412 187.422 903.194 187.734C903.975 188.016 904.959 188.156 906.147 188.156C906.991 188.156 907.741 188.125 908.397 188.062C909.084 187.969 909.662 187.875 910.131 187.781L910.178 197.719C909.022 198.094 907.772 198.391 906.428 198.609C905.084 198.828 903.6 198.938 901.975 198.938C899.006 198.938 896.412 198.453 894.194 197.484C892.006 196.484 890.319 194.891 889.131 192.703C887.944 190.516 887.35 187.641 887.35 184.078V134.766Z" fill="url(#paint0_linear_21_3)"/>
</g>
<defs>
<filter id="filter0_f_21_3" x="-1064" y="-939.105" width="3374" height="2253.26" filterUnits="userSpaceOnUse" color-interpolation-filters="sRGB">
<feFlood flood-opacity="0" result="BackgroundImageFix"/>
<feBlend mode="normal" in="SourceGraphic" in2="BackgroundImageFix" result="shape"/>
<feGaussianBlur stdDeviation="200" result="effect1_foregroundBlur_21_3"/>
</filter>
<linearGradient id="paint0_linear_21_3" x1="286" y1="165" x2="913" y2="165" gradientUnits="userSpaceOnUse">
<stop stop-color="#646CFF"/>
<stop offset="1" stop-color="#FB6586"/>
</linearGradient>
<clipPath id="clip0_21_3">
<rect width="1200" height="308" rx="10" fill="white"/>
</clipPath>
</defs>
</svg>
